<svg width="89" height="89" viewBox="0 0 89 89" fill="none" xmlns="http://www.w3.org/2000/svg">
<path d="M44.0956 88.1912C68.4489 88.1912 88.1912 68.4489 88.1912 44.0956C88.1912 19.7423 68.4489 0 44.0956 0C19.7423 0 0 19.7423 0 44.0956C0 68.4489 19.7423 88.1912 44.0956 88.1912Z" fill="white"/>
<path d="M44.6108 69.8538C40.5123 69.8538 36.4379 68.9007 32.7846 67.0919L17.4688 69.387L20.4626 54.4981C18.8019 50.9582 17.9605 47.1684 17.9605 43.2218C17.961 28.5369 29.916 16.5898 44.6108 16.5898C59.3056 16.5898 71.2606 28.5369 71.2606 43.2218C71.2606 57.9068 59.3056 69.8538 44.6108 69.8538ZM33.4609 63.0303L34.0293 63.3297C37.268 65.0353 40.9269 65.9374 44.6103 65.9374C57.1439 65.9374 67.3411 55.7471 67.3411 43.2218C67.3411 30.6966 57.1444 20.5063 44.6108 20.5063C32.0772 20.5063 21.8801 30.6966 21.8801 43.2218C21.8801 46.7843 22.6831 50.1965 24.2667 53.3626L24.5677 53.9643L22.4117 64.6864L33.4614 63.0308L33.4609 63.0303Z" fill="#0E0F10"/>
<path d="M56.7281 54.1342L57.27 53.1636C57.9227 51.9928 57.5026 50.513 56.331 49.8607L51.8133 47.3428C50.6407 46.6895 49.1599 47.1094 48.5061 48.2812L47.904 49.3616C47.559 49.9807 46.7682 50.1871 46.162 49.8198C42.4796 47.5885 39.3201 44.5885 36.9018 41.0296C36.4653 40.387 36.7214 39.5048 37.4324 39.1902L38.1485 38.8735C39.3758 38.33 39.9304 36.8951 39.3865 35.6681L37.2918 30.9415C36.749 29.716 35.3131 29.1618 34.0868 29.7043L33.0701 30.1543C32.6035 30.3612 32.1807 30.6605 31.8475 31.0472C31.7207 31.1944 31.6006 31.3445 31.4866 31.4962C28.9436 34.8774 29.6985 39.1452 29.6985 39.1452C29.7716 39.7557 29.9551 40.3211 30.2654 40.9464C33.6421 47.7556 39.4806 53.0456 46.3424 56.3225C46.6946 56.4906 47.055 56.6142 47.4174 56.6969C47.4174 56.6969 51.6431 57.8069 55.2453 55.5859C55.4073 55.4868 55.5673 55.3811 55.7258 55.2682C56.1413 54.9719 56.4787 54.5791 56.7276 54.1331L56.7281 54.1342Z" fill="#0E0F10"/>
</svg>
